<svg xmlns="http://www.w3.org/2000/svg" viewBox="0 0 24 24" width="100%" height="100%">
  <defs>
    <linearGradient id="delete-gradient" x1="0%" y1="0%" x2="100%" y2="100%">
      <stop offset="0%" stop-color="#FF4D7C" />
      <stop offset="100%" stop-color="#FF4D7C" />
    </linearGradient>
  </defs>
  <path fill="url(#delete-gradient)" d="M12.65 10C11.83 7.67 9.61 6 7 6c-3.31 0-6 2.69-6 6s2.69 6 6 6c2.61 0 4.83-1.67 5.65-4H17v4h4v-4h2v-4H12.65zM7 14c-1.1 0-2-.9-2-2s.9-2 2-2 2 .9 2 2-.9 2-2 2z"/>
  <path fill="#00F3FF" d="M7 10c-.55 0-1 .45-1 1s.45 1 1 1 1-.45 1-1-.45-1-1-1z" opacity="0.8"/>
  <path fill="none" stroke="#00F3FF" stroke-width="1.5" d="M15 10l6 4" opacity="0.8"/>
  <path fill="none" stroke="#00F3FF" stroke-width="1.5" d="M21 10l-6 4" opacity="0.8"/>
</svg>