<svg xmlns="http://www.w3.org/2000/svg" viewBox="0 0 24 24" width="100%" height="100%">
  <defs>
    <linearGradient id="encrypt-gradient" x1="0%" y1="0%" x2="100%" y2="100%">
      <stop offset="0%" stop-color="#00F3FF" />
      <stop offset="100%" stop-color="#2A2356" />
    </linearGradient>
  </defs>
  <path fill="url(#encrypt-gradient)" d="M18 8h-1V6c0-2.76-2.24-5-5-5S7 3.24 7 6v2H6c-1.1 0-2 .9-2 2v10c0 1.1.9 2 2 2h12c1.1 0 2-.9 2-2V10c0-1.1-.9-2-2-2zm-6 9c-1.1 0-2-.9-2-2s.9-2 2-2 2 .9 2 2-.9 2-2 2zm3.1-9H8.9V6c0-1.71 1.39-3.1 3.1-3.1 1.71 0 3.1 1.39 3.1 3.1v2z"/>
  <path fill="#00F3FF" d="M12 13c-.55 0-1 .45-1 1s.45 1 1 1 1-.45 1-1-.45-1-1-1z" opacity="0.8"/>
  <path fill="#4C3B8A" d="M12 13c-.55 0-1 .45-1 1s.45 1 1 1 1-.45 1-1-.45-1-1-1z" opacity="0.2"/>
</svg>