<svg xmlns="http://www.w3.org/2000/svg" viewBox="0 0 24 24" width="100%" height="100%">
  <defs>
    <linearGradient id="cyber-gradient" x1="0%" y1="0%" x2="100%" y2="100%">
      <stop offset="0%" stop-color="#00F3FF" />
      <stop offset="100%" stop-color="#FF4D7C" />
    </linearGradient>
  </defs>
  <path fill="url(#cyber-gradient)" d="M12 1L3 5v6c0 5.55 3.84 10.74 9 12 5.16-1.26 9-6.45 9-12V5l-9-4zm0 2.18l7 3.12v4.7c0 4.67-3.13 8.96-7 10.19-3.87-1.23-7-5.52-7-10.19V6.3l7-3.12z"/>
  <path fill="#4C3B8A" d="M12 6L8 8v3c0 2.22 1.54 4.29 3.6 4.8 2.07-.51 3.6-2.58 3.6-4.8V8l-3.2-2z"/>
  <path fill="#00F3FF" d="M12 7l2.5 1.5v1.5c0 1.11-.77 2.15-1.8 2.4-1.03-.25-1.8-1.29-1.8-2.4V8.5L12 7z"/>
  <path fill="#FF4D7C" d="M12 10.5l-1 .5v.5c0 .37.26.72.6.8.34-.08.6-.43.6-.8v-.5l-.2-.5z"/>
</svg>